<svg xmlns="http://www.w3.org/2000/svg" viewBox="0 0 1113 555" width="1113" height="555" role="img" aria-label="The reading view, with a table drawn as a table" font-family="ui-monospace, SFMono-Regular, 'SF Mono', Menlo, Consolas, 'DejaVu Sans Mono', monospace" font-size="15.0">
<title>The reading view, with a table drawn as a table</title>
<rect width="100%" height="100%" fill="#0a0f14" rx="6"/>
<rect x="250.5" y="16.5" width="9.0" height="21.8" fill="#0c1418"/>
<rect x="259.5" y="16.5" width="27.0" height="21.8" fill="#0c1418"/>
<rect x="286.5" y="16.5" width="180.0" height="21.8" fill="#0c1418"/>
<rect x="466.5" y="16.5" width="9.0" height="21.8" fill="#0c1418"/>
<rect x="475.5" y="16.5" width="333.0" height="21.8" fill="#0c1418"/>
<rect x="250.5" y="38.2" width="9.0" height="21.8" fill="#0c1418"/>
<rect x="259.5" y="38.2" width="36.0" height="21.8" fill="#0c1a20"/>
<rect x="295.5" y="38.2" width="99.0" height="21.8" fill="#0c1a20"/>
<rect x="394.5" y="38.2" width="27.0" height="21.8" fill="#0c1a20"/>
<rect x="421.5" y="38.2" width="63.0" height="21.8" fill="#0c1a20"/>
<rect x="484.5" y="38.2" width="315.0" height="21.8" fill="#0c1418"/>
<rect x="799.5" y="38.2" width="9.0" height="21.8" fill="#0c1418"/>
<rect x="250.5" y="60.0" width="9.0" height="21.8" fill="#0c1418"/>
<rect x="259.5" y="60.0" width="36.0" height="21.8" fill="#0c1a20"/>
<rect x="295.5" y="60.0" width="207.0" height="21.8" fill="#0c1a20"/>
<rect x="502.5" y="60.0" width="297.0" height="21.8" fill="#0c1418"/>
<rect x="799.5" y="60.0" width="9.0" height="21.8" fill="#0c1418"/>
<rect x="250.5" y="81.8" width="9.0" height="21.8" fill="#0c1418"/>
<rect x="259.5" y="81.8" width="36.0" height="21.8" fill="#0c1418"/>
<rect x="295.5" y="81.8" width="504.0" height="21.8" fill="#0c1418"/>
<rect x="799.5" y="81.8" width="9.0" height="21.8" fill="#0c1418"/>
<rect x="250.5" y="103.5" width="9.0" height="21.8" fill="#0c1418"/>
<rect x="259.5" y="103.5" width="36.0" height="21.8" fill="#0c1418"/>
<rect x="295.5" y="103.5" width="18.0" height="21.8" fill="#0c1418"/>
<rect x="313.5" y="103.5" width="153.0" height="21.8" fill="#0c1418"/>
<rect x="466.5" y="103.5" width="333.0" height="21.8" fill="#0c1418"/>
<rect x="799.5" y="103.5" width="9.0" height="21.8" fill="#0c1418"/>
<rect x="250.5" y="125.2" width="9.0" height="21.8" fill="#0c1418"/>
<rect x="259.5" y="125.2" width="36.0" height="21.8" fill="#0c1418"/>
<rect x="295.5" y="125.2" width="504.0" height="21.8" fill="#0c1418"/>
<rect x="799.5" y="125.2" width="9.0" height="21.8" fill="#0c1418"/>
<rect x="250.5" y="147.0" width="9.0" height="21.8" fill="#0c1418"/>
<rect x="259.5" y="147.0" width="36.0" height="21.8" fill="#0c1418"/>
<rect x="295.5" y="147.0" width="54.0" height="21.8" fill="#0c1418"/>
<rect x="349.5" y="147.0" width="117.0" height="21.8" fill="#0c1418"/>
<rect x="466.5" y="147.0" width="333.0" height="21.8" fill="#0c1418"/>
<rect x="799.5" y="147.0" width="9.0" height="21.8" fill="#0c1418"/>
<rect x="250.5" y="168.8" width="9.0" height="21.8" fill="#0c1418"/>
<rect x="259.5" y="168.8" width="36.0" height="21.8" fill="#0c1418"/>
<rect x="295.5" y="168.8" width="504.0" height="21.8" fill="#0c1418"/>
<rect x="799.5" y="168.8" width="9.0" height="21.8" fill="#0c1418"/>
<rect x="250.5" y="190.5" width="9.0" height="21.8" fill="#0c1418"/>
<rect x="259.5" y="190.5" width="36.0" height="21.8" fill="#0c1418"/>
<rect x="295.5" y="190.5" width="504.0" height="21.8" fill="#0c1418"/>
<rect x="799.5" y="190.5" width="9.0" height="21.8" fill="#0c1418"/>
<rect x="250.5" y="212.2" width="9.0" height="21.8" fill="#0c1418"/>
<rect x="259.5" y="212.2" width="36.0" height="21.8" fill="#0c1418"/>
<rect x="295.5" y="212.2" width="504.0" height="21.8" fill="#0c1418"/>
<rect x="799.5" y="212.2" width="9.0" height="21.8" fill="#0c1418"/>
<rect x="250.5" y="234.0" width="9.0" height="21.8" fill="#0c1418"/>
<rect x="259.5" y="234.0" width="36.0" height="21.8" fill="#0c1418"/>
<rect x="295.5" y="234.0" width="504.0" height="21.8" fill="#0c1418"/>
<rect x="799.5" y="234.0" width="9.0" height="21.8" fill="#0c1418"/>
<rect x="250.5" y="255.8" width="9.0" height="21.8" fill="#0c1418"/>
<rect x="259.5" y="255.8" width="504.0" height="21.8" fill="#0c1418"/>
<rect x="763.5" y="255.8" width="36.0" height="21.8" fill="#0c1418"/>
<rect x="799.5" y="255.8" width="9.0" height="21.8" fill="#0c1418"/>
<rect x="250.5" y="277.5" width="9.0" height="21.8" fill="#0c1418"/>
<rect x="259.5" y="277.5" width="54.0" height="21.8" fill="#0c1418"/>
<rect x="313.5" y="277.5" width="63.0" height="21.8" fill="#0c1418"/>
<rect x="376.5" y="277.5" width="162.0" height="21.8" fill="#0c1418"/>
<rect x="538.5" y="277.5" width="45.0" height="21.8" fill="#0c1418"/>
<rect x="583.5" y="277.5" width="180.0" height="21.8" fill="#0c1418"/>
<rect x="763.5" y="277.5" width="36.0" height="21.8" fill="#0c1418"/>
<rect x="799.5" y="277.5" width="9.0" height="21.8" fill="#0c1418"/>
<rect x="250.5" y="299.2" width="9.0" height="21.8" fill="#0c1418"/>
<rect x="259.5" y="299.2" width="504.0" height="21.8" fill="#0c1418"/>
<rect x="763.5" y="299.2" width="36.0" height="21.8" fill="#0c1418"/>
<rect x="799.5" y="299.2" width="9.0" height="21.8" fill="#0c1418"/>
<rect x="250.5" y="321.0" width="9.0" height="21.8" fill="#0c1418"/>
<rect x="259.5" y="321.0" width="54.0" height="21.8" fill="#0c1418"/>
<rect x="313.5" y="321.0" width="99.0" height="21.8" fill="#0c1418"/>
<rect x="412.5" y="321.0" width="126.0" height="21.8" fill="#0c1418"/>
<rect x="538.5" y="321.0" width="198.0" height="21.8" fill="#0c1418"/>
<rect x="736.5" y="321.0" width="27.0" height="21.8" fill="#0c1418"/>
<rect x="763.5" y="321.0" width="36.0" height="21.8" fill="#0c1418"/>
<rect x="799.5" y="321.0" width="9.0" height="21.8" fill="#0c1418"/>
<rect x="250.5" y="342.8" width="9.0" height="21.8" fill="#0c1418"/>
<rect x="259.5" y="342.8" width="54.0" height="21.8" fill="#0c1418"/>
<rect x="313.5" y="342.8" width="180.0" height="21.8" fill="#0c1418"/>
<rect x="493.5" y="342.8" width="45.0" height="21.8" fill="#0c1418"/>
<rect x="538.5" y="342.8" width="135.0" height="21.8" fill="#0c1418"/>
<rect x="673.5" y="342.8" width="90.0" height="21.8" fill="#0c1418"/>
<rect x="763.5" y="342.8" width="36.0" height="21.8" fill="#0c1418"/>
<rect x="799.5" y="342.8" width="9.0" height="21.8" fill="#0c1418"/>
<rect x="250.5" y="364.5" width="9.0" height="21.8" fill="#0c1418"/>
<rect x="259.5" y="364.5" width="54.0" height="21.8" fill="#0c1418"/>
<rect x="313.5" y="364.5" width="144.0" height="21.8" fill="#0c1418"/>
<rect x="457.5" y="364.5" width="81.0" height="21.8" fill="#0c1418"/>
<rect x="538.5" y="364.5" width="207.0" height="21.8" fill="#0c1418"/>
<rect x="745.5" y="364.5" width="18.0" height="21.8" fill="#0c1418"/>
<rect x="763.5" y="364.5" width="36.0" height="21.8" fill="#0c1418"/>
<rect x="799.5" y="364.5" width="9.0" height="21.8" fill="#0c1418"/>
<rect x="250.5" y="386.2" width="9.0" height="21.8" fill="#0c1418"/>
<rect x="259.5" y="386.2" width="504.0" height="21.8" fill="#0c1418"/>
<rect x="763.5" y="386.2" width="36.0" height="21.8" fill="#0c1418"/>
<rect x="799.5" y="386.2" width="9.0" height="21.8" fill="#0c1418"/>
<rect x="250.5" y="408.0" width="9.0" height="21.8" fill="#0c1418"/>
<rect x="259.5" y="408.0" width="36.0" height="21.8" fill="#0c1418"/>
<rect x="295.5" y="408.0" width="504.0" height="21.8" fill="#0c1418"/>
<rect x="799.5" y="408.0" width="9.0" height="21.8" fill="#0c1418"/>
<rect x="250.5" y="429.8" width="9.0" height="21.8" fill="#0c1418"/>
<rect x="259.5" y="429.8" width="36.0" height="21.8" fill="#0c1418"/>
<rect x="295.5" y="429.8" width="504.0" height="21.8" fill="#0c1418"/>
<rect x="799.5" y="429.8" width="9.0" height="21.8" fill="#0c1418"/>
<rect x="250.5" y="451.5" width="9.0" height="21.8" fill="#0c1418"/>
<rect x="259.5" y="451.5" width="36.0" height="21.8" fill="#0c1418"/>
<rect x="295.5" y="451.5" width="504.0" height="21.8" fill="#0c1418"/>
<rect x="799.5" y="451.5" width="9.0" height="21.8" fill="#0c1418"/>
<rect x="250.5" y="473.2" width="9.0" height="21.8" fill="#0c1418"/>
<rect x="259.5" y="473.2" width="36.0" height="21.8" fill="#0c1418"/>
<rect x="295.5" y="473.2" width="72.0" height="21.8" fill="#0c1418"/>
<rect x="367.5" y="473.2" width="63.0" height="21.8" fill="#0c1418"/>
<rect x="430.5" y="473.2" width="369.0" height="21.8" fill="#0c1418"/>
<rect x="799.5" y="473.2" width="9.0" height="21.8" fill="#0c1418"/>
<rect x="250.5" y="495.0" width="558.0" height="21.8" fill="#0c1418"/>
<rect x="16.5" y="516.8" width="72.0" height="21.8" fill="#edb54b"/>
<rect x="88.5" y="516.8" width="864.0" height="21.8" fill="#0c1418"/>
<rect x="952.5" y="516.8" width="144.0" height="21.8" fill="#0c1418"/>
<text y="28.5"><tspan x="16.5" fill="#0e2129" xml:space="preserve">╭</tspan><tspan x="52.5" fill="#599caa" xml:space="preserve">vault </tspan><tspan x="106.5" fill="#0e2129" xml:space="preserve">───────────────╮</tspan><tspan x="250.5" fill="#33859d" xml:space="preserve">╭</tspan><tspan x="259.5" fill="#edb54b" xml:space="preserve"> ● </tspan><tspan x="286.5" fill="#edb54b" xml:space="preserve" font-weight="700">How linking works.md</tspan><tspan x="475.5" fill="#33859d" xml:space="preserve">────────────────────────────────────╮</tspan><tspan x="808.5" fill="#0e2129" xml:space="preserve">╭</tspan><tspan x="844.5" fill="#599caa" xml:space="preserve">context </tspan><tspan x="916.5" fill="#0e2129" xml:space="preserve">───────────────────╮</tspan></text>
<text y="50.2"><tspan x="16.5" fill="#0e2129" xml:space="preserve">│</tspan><tspan x="25.5" fill="#245361" xml:space="preserve">4 notes · 226 words</tspan><tspan x="241.5" fill="#0e2129" xml:space="preserve">│</tspan><tspan x="250.5" fill="#33859d" xml:space="preserve">│</tspan><tspan x="295.5" fill="#a3a6c0" xml:space="preserve">#[reference</tspan><tspan x="394.5" fill="#245361" xml:space="preserve"> · </tspan><tspan x="421.5" fill="#a3a6c0" xml:space="preserve">#links]</tspan><tspan x="799.5" fill="#33859d" xml:space="preserve">│</tspan><tspan x="808.5" fill="#0e2129" xml:space="preserve">│</tspan><tspan x="817.5" fill="#33859d" xml:space="preserve" font-weight="700">OUTLINE</tspan><tspan x="1087.5" fill="#0e2129" xml:space="preserve">│</tspan></text>
<text y="72.0"><tspan x="16.5" fill="#0e2129" xml:space="preserve">│</tspan><tspan x="25.5" fill="#edb54b" xml:space="preserve">▾ </tspan><tspan x="43.5" fill="#d3ebe9" xml:space="preserve" font-weight="700">projects</tspan><tspan x="223.5" fill="#245361" xml:space="preserve"> 1</tspan><tspan x="241.5" fill="#0e2129" xml:space="preserve">│</tspan><tspan x="250.5" fill="#33859d" xml:space="preserve">│</tspan><tspan x="295.5" fill="#245361" xml:space="preserve">title How linking works</tspan><tspan x="799.5" fill="#33859d" xml:space="preserve">│</tspan><tspan x="808.5" fill="#0e2129" xml:space="preserve">│</tspan><tspan x="817.5" fill="#edb54b" xml:space="preserve" font-weight="700">How linking works</tspan><tspan x="1087.5" fill="#0e2129" xml:space="preserve">│</tspan></text>
<text y="93.8"><tspan x="16.5" fill="#0e2129" xml:space="preserve">│</tspan><tspan x="61.5" fill="#98d1ce" xml:space="preserve">Roadmap             </tspan><tspan x="241.5" fill="#0e2129" xml:space="preserve">│</tspan><tspan x="250.5" fill="#33859d" xml:space="preserve">│</tspan><tspan x="259.5" fill="#245361" xml:space="preserve">  5 </tspan><tspan x="799.5" fill="#33859d" xml:space="preserve">│</tspan><tspan x="808.5" fill="#0e2129" xml:space="preserve">│</tspan><tspan x="1087.5" fill="#0e2129" xml:space="preserve">│</tspan></text>
<text y="115.5"><tspan x="16.5" fill="#0e2129" xml:space="preserve">│</tspan><tspan x="25.5" fill="#edb54b" xml:space="preserve">▌ How linking works</tspan><tspan x="241.5" fill="#0e2129" xml:space="preserve">│</tspan><tspan x="250.5" fill="#33859d" xml:space="preserve">│</tspan><tspan x="259.5" fill="#245361" xml:space="preserve">  6 </tspan><tspan x="295.5" fill="#edb54b" xml:space="preserve">▾ </tspan><tspan x="313.5" fill="#edb54b" xml:space="preserve" font-weight="700">How linking works</tspan><tspan x="799.5" fill="#33859d" xml:space="preserve">│</tspan><tspan x="808.5" fill="#0e2129" xml:space="preserve">│</tspan><tspan x="817.5" fill="#33859d" xml:space="preserve" font-weight="700">LINKS OUT · 2</tspan><tspan x="1087.5" fill="#0e2129" xml:space="preserve">│</tspan></text>
<text y="137.2"><tspan x="16.5" fill="#0e2129" xml:space="preserve">│</tspan><tspan x="43.5" fill="#98d1ce" xml:space="preserve">Reading a note        </tspan><tspan x="241.5" fill="#0e2129" xml:space="preserve">│</tspan><tspan x="250.5" fill="#33859d" xml:space="preserve">│</tspan><tspan x="259.5" fill="#245361" xml:space="preserve">  7 </tspan><tspan x="799.5" fill="#33859d" xml:space="preserve">│</tspan><tspan x="808.5" fill="#0e2129" xml:space="preserve">│</tspan><tspan x="817.5" fill="#245361" xml:space="preserve">  → </tspan><tspan x="853.5" fill="#599caa" xml:space="preserve">Welcome</tspan><tspan x="1087.5" fill="#0e2129" xml:space="preserve">│</tspan></text>
<text y="159.0"><tspan x="16.5" fill="#0e2129" xml:space="preserve">│</tspan><tspan x="43.5" fill="#98d1ce" xml:space="preserve">Welcome               </tspan><tspan x="241.5" fill="#0e2129" xml:space="preserve">│</tspan><tspan x="250.5" fill="#33859d" xml:space="preserve">│</tspan><tspan x="259.5" fill="#245361" xml:space="preserve">  8 </tspan><tspan x="295.5" fill="#98d1ce" xml:space="preserve">Write </tspan><tspan x="349.5" fill="#26a98b" xml:space="preserve">[[Note name]]</tspan><tspan x="466.5" fill="#98d1ce" xml:space="preserve"> anywhere and trafford resolves it   </tspan><tspan x="799.5" fill="#33859d" xml:space="preserve">│</tspan><tspan x="808.5" fill="#0e2129" xml:space="preserve">│</tspan><tspan x="817.5" fill="#245361" xml:space="preserve">  → </tspan><tspan x="853.5" fill="#599caa" xml:space="preserve">Roadmap</tspan><tspan x="1087.5" fill="#0e2129" xml:space="preserve">│</tspan></text>
<text y="180.8"><tspan x="16.5" fill="#0e2129" xml:space="preserve">│</tspan><tspan x="241.5" fill="#0e2129" xml:space="preserve">│</tspan><tspan x="250.5" fill="#33859d" xml:space="preserve">│</tspan><tspan x="295.5" fill="#98d1ce" xml:space="preserve">against the vault:                                      </tspan><tspan x="799.5" fill="#33859d" xml:space="preserve">│</tspan><tspan x="808.5" fill="#0e2129" xml:space="preserve">│</tspan><tspan x="1087.5" fill="#0e2129" xml:space="preserve">│</tspan></text>
<text y="202.5"><tspan x="16.5" fill="#0e2129" xml:space="preserve">│</tspan><tspan x="241.5" fill="#0e2129" xml:space="preserve">│</tspan><tspan x="250.5" fill="#33859d" xml:space="preserve">│</tspan><tspan x="259.5" fill="#245361" xml:space="preserve">  9 </tspan><tspan x="295.5" fill="#98d1ce" xml:space="preserve">exact path first, then filename — the same order        </tspan><tspan x="799.5" fill="#33859d" xml:space="preserve">│</tspan><tspan x="808.5" fill="#0e2129" xml:space="preserve">│</tspan><tspan x="817.5" fill="#33859d" xml:space="preserve" font-weight="700">BACKLINKS · 2</tspan><tspan x="1087.5" fill="#0e2129" xml:space="preserve">│</tspan></text>
<text y="224.2"><tspan x="16.5" fill="#0e2129" xml:space="preserve">│</tspan><tspan x="241.5" fill="#0e2129" xml:space="preserve">│</tspan><tspan x="250.5" fill="#33859d" xml:space="preserve">│</tspan><tspan x="295.5" fill="#98d1ce" xml:space="preserve">Obsidian uses.                                          </tspan><tspan x="799.5" fill="#33859d" xml:space="preserve">│</tspan><tspan x="808.5" fill="#0e2129" xml:space="preserve">│</tspan><tspan x="817.5" fill="#245361" xml:space="preserve">  ← </tspan><tspan x="853.5" fill="#599caa" xml:space="preserve">Reading a note</tspan><tspan x="1087.5" fill="#0e2129" xml:space="preserve">│</tspan></text>
<text y="246.0"><tspan x="16.5" fill="#0e2129" xml:space="preserve">│</tspan><tspan x="241.5" fill="#0e2129" xml:space="preserve">│</tspan><tspan x="250.5" fill="#33859d" xml:space="preserve">│</tspan><tspan x="259.5" fill="#245361" xml:space="preserve"> 10 </tspan><tspan x="799.5" fill="#33859d" xml:space="preserve">│</tspan><tspan x="808.5" fill="#0e2129" xml:space="preserve">│</tspan><tspan x="817.5" fill="#245361" xml:space="preserve">     See [[How linking works]…</tspan><tspan x="1087.5" fill="#0e2129" xml:space="preserve">│</tspan></text>
<text y="267.8"><tspan x="16.5" fill="#0e2129" xml:space="preserve">│</tspan><tspan x="241.5" fill="#0e2129" xml:space="preserve">│</tspan><tspan x="250.5" fill="#33859d" xml:space="preserve">│</tspan><tspan x="259.5" fill="#245361" xml:space="preserve">    ┌────────────────────────┬─────────────────────────┐</tspan><tspan x="799.5" fill="#33859d" xml:space="preserve">│</tspan><tspan x="808.5" fill="#0e2129" xml:space="preserve">│</tspan><tspan x="817.5" fill="#245361" xml:space="preserve">  ← </tspan><tspan x="853.5" fill="#599caa" xml:space="preserve">Welcome</tspan><tspan x="1087.5" fill="#0e2129" xml:space="preserve">│</tspan></text>
<text y="289.5"><tspan x="16.5" fill="#0e2129" xml:space="preserve">│</tspan><tspan x="241.5" fill="#0e2129" xml:space="preserve">│</tspan><tspan x="250.5" fill="#33859d" xml:space="preserve">│</tspan><tspan x="259.5" fill="#245361" xml:space="preserve"> 11 │ </tspan><tspan x="313.5" fill="#98d1ce" xml:space="preserve">Written</tspan><tspan x="376.5" fill="#245361" xml:space="preserve">                │ </tspan><tspan x="538.5" fill="#98d1ce" xml:space="preserve">Opens</tspan><tspan x="583.5" fill="#245361" xml:space="preserve">                   │</tspan><tspan x="799.5" fill="#33859d" xml:space="preserve">│</tspan><tspan x="808.5" fill="#0e2129" xml:space="preserve">│</tspan><tspan x="817.5" fill="#245361" xml:space="preserve">     Start with [[How linking…</tspan><tspan x="1087.5" fill="#0e2129" xml:space="preserve">│</tspan></text>
<text y="311.2"><tspan x="16.5" fill="#0e2129" xml:space="preserve">│</tspan><tspan x="241.5" fill="#0e2129" xml:space="preserve">│</tspan><tspan x="250.5" fill="#33859d" xml:space="preserve">│</tspan><tspan x="259.5" fill="#245361" xml:space="preserve">    ├────────────────────────┼─────────────────────────┤</tspan><tspan x="799.5" fill="#33859d" xml:space="preserve">│</tspan><tspan x="808.5" fill="#0e2129" xml:space="preserve">│</tspan><tspan x="1087.5" fill="#0e2129" xml:space="preserve">│</tspan></text>
<text y="333.0"><tspan x="16.5" fill="#0e2129" xml:space="preserve">│</tspan><tspan x="241.5" fill="#0e2129" xml:space="preserve">│</tspan><tspan x="250.5" fill="#33859d" xml:space="preserve">│</tspan><tspan x="259.5" fill="#245361" xml:space="preserve"> 13 │ </tspan><tspan x="313.5" fill="#26a98b" xml:space="preserve">[[Welcome]]</tspan><tspan x="412.5" fill="#245361" xml:space="preserve">            │ </tspan><tspan x="538.5" fill="#98d1ce" xml:space="preserve">the note named Welcome</tspan><tspan x="736.5" fill="#245361" xml:space="preserve">  │</tspan><tspan x="799.5" fill="#33859d" xml:space="preserve">│</tspan><tspan x="808.5" fill="#0e2129" xml:space="preserve">│</tspan><tspan x="817.5" fill="#33859d" xml:space="preserve" font-weight="700">UNWRITTEN · 1</tspan><tspan x="1087.5" fill="#0e2129" xml:space="preserve">│</tspan></text>
<text y="354.8"><tspan x="16.5" fill="#0e2129" xml:space="preserve">│</tspan><tspan x="241.5" fill="#0e2129" xml:space="preserve">│</tspan><tspan x="250.5" fill="#33859d" xml:space="preserve">│</tspan><tspan x="259.5" fill="#245361" xml:space="preserve"> 14 │ </tspan><tspan x="313.5" fill="#26a98b" xml:space="preserve">[[projects/Roadmap]]</tspan><tspan x="493.5" fill="#245361" xml:space="preserve">   │ </tspan><tspan x="538.5" fill="#98d1ce" xml:space="preserve">that exact path</tspan><tspan x="673.5" fill="#245361" xml:space="preserve">         │</tspan><tspan x="799.5" fill="#33859d" xml:space="preserve">│</tspan><tspan x="808.5" fill="#0e2129" xml:space="preserve">│</tspan><tspan x="817.5" fill="#245361" xml:space="preserve">  ○ </tspan><tspan x="853.5" fill="#c33027" xml:space="preserve">Note name</tspan><tspan x="1087.5" fill="#0e2129" xml:space="preserve">│</tspan></text>
<text y="376.5"><tspan x="16.5" fill="#0e2129" xml:space="preserve">│</tspan><tspan x="241.5" fill="#0e2129" xml:space="preserve">│</tspan><tspan x="250.5" fill="#33859d" xml:space="preserve">│</tspan><tspan x="259.5" fill="#245361" xml:space="preserve"> 15 │ </tspan><tspan x="313.5" fill="#26a98b" xml:space="preserve">[[Welcome#Tags]]</tspan><tspan x="457.5" fill="#245361" xml:space="preserve">       │ </tspan><tspan x="538.5" fill="#98d1ce" xml:space="preserve">Welcome, at the heading</tspan><tspan x="745.5" fill="#245361" xml:space="preserve"> │</tspan><tspan x="799.5" fill="#33859d" xml:space="preserve">│</tspan><tspan x="808.5" fill="#0e2129" xml:space="preserve">│</tspan><tspan x="1087.5" fill="#0e2129" xml:space="preserve">│</tspan></text>
<text y="398.2"><tspan x="16.5" fill="#0e2129" xml:space="preserve">│</tspan><tspan x="241.5" fill="#0e2129" xml:space="preserve">│</tspan><tspan x="250.5" fill="#33859d" xml:space="preserve">│</tspan><tspan x="259.5" fill="#245361" xml:space="preserve">    └────────────────────────┴─────────────────────────┘</tspan><tspan x="799.5" fill="#33859d" xml:space="preserve">│</tspan><tspan x="808.5" fill="#0e2129" xml:space="preserve">│</tspan><tspan x="1087.5" fill="#0e2129" xml:space="preserve">│</tspan></text>
<text y="420.0"><tspan x="16.5" fill="#0e2129" xml:space="preserve">│</tspan><tspan x="241.5" fill="#0e2129" xml:space="preserve">│</tspan><tspan x="250.5" fill="#33859d" xml:space="preserve">│</tspan><tspan x="259.5" fill="#245361" xml:space="preserve"> 16 </tspan><tspan x="799.5" fill="#33859d" xml:space="preserve">│</tspan><tspan x="808.5" fill="#0e2129" xml:space="preserve">│</tspan><tspan x="1087.5" fill="#0e2129" xml:space="preserve">│</tspan></text>
<text y="441.8"><tspan x="16.5" fill="#0e2129" xml:space="preserve">│</tspan><tspan x="241.5" fill="#0e2129" xml:space="preserve">│</tspan><tspan x="250.5" fill="#33859d" xml:space="preserve">│</tspan><tspan x="259.5" fill="#245361" xml:space="preserve"> 17 </tspan><tspan x="295.5" fill="#98d1ce" xml:space="preserve">Renaming a note rewrites every link that pointed at it. </tspan><tspan x="799.5" fill="#33859d" xml:space="preserve">│</tspan><tspan x="808.5" fill="#0e2129" xml:space="preserve">│</tspan><tspan x="1087.5" fill="#0e2129" xml:space="preserve">│</tspan></text>
<text y="463.5"><tspan x="16.5" fill="#0e2129" xml:space="preserve">│</tspan><tspan x="241.5" fill="#0e2129" xml:space="preserve">│</tspan><tspan x="250.5" fill="#33859d" xml:space="preserve">│</tspan><tspan x="259.5" fill="#245361" xml:space="preserve"> 18 </tspan><tspan x="799.5" fill="#33859d" xml:space="preserve">│</tspan><tspan x="808.5" fill="#0e2129" xml:space="preserve">│</tspan><tspan x="1087.5" fill="#0e2129" xml:space="preserve">│</tspan></text>
<text y="485.2"><tspan x="16.5" fill="#0e2129" xml:space="preserve">│</tspan><tspan x="241.5" fill="#0e2129" xml:space="preserve">│</tspan><tspan x="250.5" fill="#33859d" xml:space="preserve">│</tspan><tspan x="259.5" fill="#245361" xml:space="preserve"> 19 </tspan><tspan x="295.5" fill="#98d1ce" xml:space="preserve">Back to </tspan><tspan x="367.5" fill="#599caa" xml:space="preserve" text-decoration="underline">Welcome</tspan><tspan x="430.5" fill="#98d1ce" xml:space="preserve">.                                        </tspan><tspan x="799.5" fill="#33859d" xml:space="preserve">│</tspan><tspan x="808.5" fill="#0e2129" xml:space="preserve">│</tspan><tspan x="1087.5" fill="#0e2129" xml:space="preserve">│</tspan></text>
<text y="507.0"><tspan x="16.5" fill="#0e2129" xml:space="preserve">╰────────────────────────╯</tspan><tspan x="250.5" fill="#33859d" xml:space="preserve">╰────────────────────────────────────────────────────────────╯</tspan><tspan x="808.5" fill="#0e2129" xml:space="preserve">╰──────────────────────────────╯</tspan></text>
<text y="528.8"><tspan x="16.5" fill="#0a0f14" xml:space="preserve" font-weight="700"> NORMAL </tspan><tspan x="88.5" fill="#98d1ce" xml:space="preserve">  preview                                                                                       </tspan><tspan x="952.5" fill="#599caa" xml:space="preserve">  81 words  1:1 </tspan></text>
</svg>
