<svg xmlns="http://www.w3.org/2000/svg" viewBox="0 0 1113 555" width="1113" height="555" role="img" aria-label="trafford, reading a vault" font-family="ui-monospace, SFMono-Regular, 'SF Mono', Menlo, Consolas, 'DejaVu Sans Mono', monospace" font-size="15.0">
<title>trafford, reading a vault</title>
<rect width="100%" height="100%" fill="#0a0f14" rx="6"/>
<rect x="250.5" y="16.5" width="9.0" height="21.8" fill="#0c1418"/>
<rect x="259.5" y="16.5" width="27.0" height="21.8" fill="#0c1418"/>
<rect x="286.5" y="16.5" width="90.0" height="21.8" fill="#0c1418"/>
<rect x="376.5" y="16.5" width="9.0" height="21.8" fill="#0c1418"/>
<rect x="385.5" y="16.5" width="423.0" height="21.8" fill="#0c1418"/>
<rect x="250.5" y="38.2" width="9.0" height="21.8" fill="#0c1418"/>
<rect x="259.5" y="38.2" width="36.0" height="21.8" fill="#0c1a20"/>
<rect x="295.5" y="38.2" width="27.0" height="21.8" fill="#0c1a20"/>
<rect x="322.5" y="38.2" width="477.0" height="21.8" fill="#0c1418"/>
<rect x="799.5" y="38.2" width="9.0" height="21.8" fill="#0c1418"/>
<rect x="250.5" y="60.0" width="9.0" height="21.8" fill="#0c1418"/>
<rect x="259.5" y="60.0" width="36.0" height="21.8" fill="#0c1418"/>
<rect x="295.5" y="60.0" width="504.0" height="21.8" fill="#0c1418"/>
<rect x="799.5" y="60.0" width="9.0" height="21.8" fill="#0c1418"/>
<rect x="250.5" y="81.8" width="9.0" height="21.8" fill="#0c1418"/>
<rect x="259.5" y="81.8" width="36.0" height="21.8" fill="#0c1418"/>
<rect x="295.5" y="81.8" width="504.0" height="21.8" fill="#0c1418"/>
<rect x="799.5" y="81.8" width="9.0" height="21.8" fill="#0c1418"/>
<rect x="250.5" y="103.5" width="9.0" height="21.8" fill="#0c1418"/>
<rect x="259.5" y="103.5" width="63.0" height="21.8" fill="#0c1418"/>
<rect x="322.5" y="103.5" width="477.0" height="21.8" fill="#0c1418"/>
<rect x="799.5" y="103.5" width="9.0" height="21.8" fill="#0c1418"/>
<rect x="250.5" y="125.2" width="9.0" height="21.8" fill="#0c1418"/>
<rect x="259.5" y="125.2" width="36.0" height="21.8" fill="#0c1418"/>
<rect x="295.5" y="125.2" width="504.0" height="21.8" fill="#0c1418"/>
<rect x="799.5" y="125.2" width="9.0" height="21.8" fill="#0c1418"/>
<rect x="250.5" y="147.0" width="9.0" height="21.8" fill="#0c1418"/>
<rect x="259.5" y="147.0" width="45.0" height="21.8" fill="#0c1418"/>
<rect x="304.5" y="147.0" width="72.0" height="21.8" fill="#0c1418"/>
<rect x="376.5" y="147.0" width="423.0" height="21.8" fill="#0c1418"/>
<rect x="799.5" y="147.0" width="9.0" height="21.8" fill="#0c1418"/>
<rect x="250.5" y="168.8" width="9.0" height="21.8" fill="#0c1418"/>
<rect x="259.5" y="168.8" width="36.0" height="21.8" fill="#0c1418"/>
<rect x="295.5" y="168.8" width="504.0" height="21.8" fill="#0c1418"/>
<rect x="799.5" y="168.8" width="9.0" height="21.8" fill="#0c1418"/>
<rect x="250.5" y="190.5" width="9.0" height="21.8" fill="#0c1418"/>
<rect x="259.5" y="190.5" width="36.0" height="21.8" fill="#0c1418"/>
<rect x="295.5" y="190.5" width="504.0" height="21.8" fill="#0c1418"/>
<rect x="799.5" y="190.5" width="9.0" height="21.8" fill="#0c1418"/>
<rect x="250.5" y="212.2" width="9.0" height="21.8" fill="#0c1418"/>
<rect x="259.5" y="212.2" width="36.0" height="21.8" fill="#0c1418"/>
<rect x="295.5" y="212.2" width="504.0" height="21.8" fill="#0c1418"/>
<rect x="799.5" y="212.2" width="9.0" height="21.8" fill="#0c1418"/>
<rect x="250.5" y="234.0" width="9.0" height="21.8" fill="#0c1418"/>
<rect x="259.5" y="234.0" width="36.0" height="21.8" fill="#0c1418"/>
<rect x="295.5" y="234.0" width="63.0" height="21.8" fill="#0c1418"/>
<rect x="358.5" y="234.0" width="135.0" height="21.8" fill="#0c1418"/>
<rect x="493.5" y="234.0" width="306.0" height="21.8" fill="#0c1418"/>
<rect x="799.5" y="234.0" width="9.0" height="21.8" fill="#0c1418"/>
<rect x="250.5" y="255.8" width="9.0" height="21.8" fill="#0c1418"/>
<rect x="259.5" y="255.8" width="36.0" height="21.8" fill="#0c1418"/>
<rect x="295.5" y="255.8" width="504.0" height="21.8" fill="#0c1418"/>
<rect x="799.5" y="255.8" width="9.0" height="21.8" fill="#0c1418"/>
<rect x="250.5" y="277.5" width="9.0" height="21.8" fill="#0c1418"/>
<rect x="259.5" y="277.5" width="36.0" height="21.8" fill="#0c1418"/>
<rect x="295.5" y="277.5" width="504.0" height="21.8" fill="#0c1418"/>
<rect x="799.5" y="277.5" width="9.0" height="21.8" fill="#0c1418"/>
<rect x="250.5" y="299.2" width="9.0" height="21.8" fill="#0c1418"/>
<rect x="259.5" y="299.2" width="36.0" height="21.8" fill="#0c1418"/>
<rect x="295.5" y="299.2" width="99.0" height="21.8" fill="#0c1418"/>
<rect x="394.5" y="299.2" width="189.0" height="21.8" fill="#0c1418"/>
<rect x="583.5" y="299.2" width="216.0" height="21.8" fill="#0c1418"/>
<rect x="799.5" y="299.2" width="9.0" height="21.8" fill="#0c1418"/>
<rect x="250.5" y="321.0" width="9.0" height="21.8" fill="#0c1418"/>
<rect x="259.5" y="321.0" width="36.0" height="21.8" fill="#0c1418"/>
<rect x="295.5" y="321.0" width="162.0" height="21.8" fill="#0c1418"/>
<rect x="457.5" y="321.0" width="342.0" height="21.8" fill="#0c1418"/>
<rect x="799.5" y="321.0" width="9.0" height="21.8" fill="#0c1418"/>
<rect x="250.5" y="342.8" width="9.0" height="21.8" fill="#0c1418"/>
<rect x="259.5" y="342.8" width="36.0" height="21.8" fill="#0c1418"/>
<rect x="295.5" y="342.8" width="504.0" height="21.8" fill="#0c1418"/>
<rect x="799.5" y="342.8" width="9.0" height="21.8" fill="#0c1418"/>
<rect x="250.5" y="364.5" width="9.0" height="21.8" fill="#0c1418"/>
<rect x="259.5" y="364.5" width="36.0" height="21.8" fill="#0c1418"/>
<rect x="295.5" y="364.5" width="9.0" height="21.8" fill="#0c1418"/>
<rect x="304.5" y="364.5" width="324.0" height="21.8" fill="#0c1418"/>
<rect x="628.5" y="364.5" width="171.0" height="21.8" fill="#0c1418"/>
<rect x="799.5" y="364.5" width="9.0" height="21.8" fill="#0c1418"/>
<rect x="250.5" y="386.2" width="9.0" height="21.8" fill="#0c1418"/>
<rect x="259.5" y="386.2" width="36.0" height="21.8" fill="#0c1418"/>
<rect x="295.5" y="386.2" width="9.0" height="21.8" fill="#0c1418"/>
<rect x="304.5" y="386.2" width="468.0" height="21.8" fill="#0c1418"/>
<rect x="772.5" y="386.2" width="27.0" height="21.8" fill="#0c1418"/>
<rect x="799.5" y="386.2" width="9.0" height="21.8" fill="#0c1418"/>
<rect x="250.5" y="408.0" width="9.0" height="21.8" fill="#0c1418"/>
<rect x="259.5" y="408.0" width="36.0" height="21.8" fill="#0c1418"/>
<rect x="295.5" y="408.0" width="504.0" height="21.8" fill="#0c1418"/>
<rect x="799.5" y="408.0" width="9.0" height="21.8" fill="#0c1418"/>
<rect x="250.5" y="429.8" width="9.0" height="21.8" fill="#0c1418"/>
<rect x="259.5" y="429.8" width="36.0" height="21.8" fill="#0c1418"/>
<rect x="295.5" y="429.8" width="54.0" height="21.8" fill="#0c1418"/>
<rect x="349.5" y="429.8" width="90.0" height="21.8" fill="#0c1418"/>
<rect x="439.5" y="429.8" width="360.0" height="21.8" fill="#0c1418"/>
<rect x="799.5" y="429.8" width="9.0" height="21.8" fill="#0c1418"/>
<rect x="250.5" y="451.5" width="9.0" height="21.8" fill="#0c1418"/>
<rect x="259.5" y="451.5" width="36.0" height="21.8" fill="#0c1418"/>
<rect x="295.5" y="451.5" width="54.0" height="21.8" fill="#0c1418"/>
<rect x="349.5" y="451.5" width="450.0" height="21.8" fill="#0c1418"/>
<rect x="799.5" y="451.5" width="9.0" height="21.8" fill="#0c1418"/>
<rect x="250.5" y="473.2" width="9.0" height="21.8" fill="#0c1418"/>
<rect x="259.5" y="473.2" width="36.0" height="21.8" fill="#0c1418"/>
<rect x="295.5" y="473.2" width="504.0" height="21.8" fill="#0c1418"/>
<rect x="799.5" y="473.2" width="9.0" height="21.8" fill="#0c1418"/>
<rect x="250.5" y="495.0" width="558.0" height="21.8" fill="#0c1418"/>
<rect x="16.5" y="516.8" width="72.0" height="21.8" fill="#edb54b"/>
<rect x="88.5" y="516.8" width="18.0" height="21.8" fill="#0c1418"/>
<rect x="106.5" y="516.8" width="522.0" height="21.8" fill="#0c1418"/>
<rect x="628.5" y="516.8" width="324.0" height="21.8" fill="#0c1418"/>
<rect x="952.5" y="516.8" width="144.0" height="21.8" fill="#0c1418"/>
<text y="28.5"><tspan x="16.5" fill="#0e2129" xml:space="preserve">╭</tspan><tspan x="52.5" fill="#599caa" xml:space="preserve">vault </tspan><tspan x="106.5" fill="#0e2129" xml:space="preserve">───────────────╮</tspan><tspan x="250.5" fill="#33859d" xml:space="preserve">╭</tspan><tspan x="259.5" fill="#edb54b" xml:space="preserve"> ● </tspan><tspan x="286.5" fill="#edb54b" xml:space="preserve" font-weight="700">Welcome.md</tspan><tspan x="385.5" fill="#33859d" xml:space="preserve">──────────────────────────────────────────────╮</tspan><tspan x="808.5" fill="#0e2129" xml:space="preserve">╭</tspan><tspan x="844.5" fill="#599caa" xml:space="preserve">context </tspan><tspan x="916.5" fill="#0e2129" xml:space="preserve">───────────────────╮</tspan></text>
<text y="50.2"><tspan x="16.5" fill="#0e2129" xml:space="preserve">│</tspan><tspan x="25.5" fill="#245361" xml:space="preserve">4 notes · 226 words</tspan><tspan x="241.5" fill="#0e2129" xml:space="preserve">│</tspan><tspan x="250.5" fill="#33859d" xml:space="preserve">│</tspan><tspan x="259.5" fill="#edb54b" xml:space="preserve">  1 </tspan><tspan x="295.5" fill="#245361" xml:space="preserve">---</tspan><tspan x="799.5" fill="#33859d" xml:space="preserve">│</tspan><tspan x="808.5" fill="#0e2129" xml:space="preserve">│</tspan><tspan x="817.5" fill="#33859d" xml:space="preserve" font-weight="700">OUTLINE</tspan><tspan x="1087.5" fill="#0e2129" xml:space="preserve">│</tspan></text>
<text y="72.0"><tspan x="16.5" fill="#0e2129" xml:space="preserve">│</tspan><tspan x="25.5" fill="#edb54b" xml:space="preserve">▾ </tspan><tspan x="43.5" fill="#d3ebe9" xml:space="preserve" font-weight="700">projects</tspan><tspan x="223.5" fill="#245361" xml:space="preserve"> 1</tspan><tspan x="241.5" fill="#0e2129" xml:space="preserve">│</tspan><tspan x="250.5" fill="#33859d" xml:space="preserve">│</tspan><tspan x="259.5" fill="#245361" xml:space="preserve">  2 </tspan><tspan x="295.5" fill="#98d1ce" xml:space="preserve">title: Welcome                                          </tspan><tspan x="799.5" fill="#33859d" xml:space="preserve">│</tspan><tspan x="808.5" fill="#0e2129" xml:space="preserve">│</tspan><tspan x="817.5" fill="#edb54b" xml:space="preserve" font-weight="700">Welcome</tspan><tspan x="1087.5" fill="#0e2129" xml:space="preserve">│</tspan></text>
<text y="93.8"><tspan x="16.5" fill="#0e2129" xml:space="preserve">│</tspan><tspan x="61.5" fill="#98d1ce" xml:space="preserve">Roadmap             </tspan><tspan x="241.5" fill="#0e2129" xml:space="preserve">│</tspan><tspan x="250.5" fill="#33859d" xml:space="preserve">│</tspan><tspan x="259.5" fill="#245361" xml:space="preserve">  3 </tspan><tspan x="295.5" fill="#98d1ce" xml:space="preserve">tags: [start]                                           </tspan><tspan x="799.5" fill="#33859d" xml:space="preserve">│</tspan><tspan x="808.5" fill="#0e2129" xml:space="preserve">│</tspan><tspan x="1087.5" fill="#0e2129" xml:space="preserve">│</tspan></text>
<text y="115.5"><tspan x="16.5" fill="#0e2129" xml:space="preserve">│</tspan><tspan x="43.5" fill="#98d1ce" xml:space="preserve">How linking works     </tspan><tspan x="241.5" fill="#0e2129" xml:space="preserve">│</tspan><tspan x="250.5" fill="#33859d" xml:space="preserve">│</tspan><tspan x="259.5" fill="#245361" xml:space="preserve">  4 ---</tspan><tspan x="799.5" fill="#33859d" xml:space="preserve">│</tspan><tspan x="808.5" fill="#0e2129" xml:space="preserve">│</tspan><tspan x="817.5" fill="#33859d" xml:space="preserve" font-weight="700">LINKS OUT · 2</tspan><tspan x="1087.5" fill="#0e2129" xml:space="preserve">│</tspan></text>
<text y="137.2"><tspan x="16.5" fill="#0e2129" xml:space="preserve">│</tspan><tspan x="43.5" fill="#98d1ce" xml:space="preserve">Reading a note        </tspan><tspan x="241.5" fill="#0e2129" xml:space="preserve">│</tspan><tspan x="250.5" fill="#33859d" xml:space="preserve">│</tspan><tspan x="259.5" fill="#245361" xml:space="preserve">  5 </tspan><tspan x="799.5" fill="#33859d" xml:space="preserve">│</tspan><tspan x="808.5" fill="#0e2129" xml:space="preserve">│</tspan><tspan x="817.5" fill="#245361" xml:space="preserve">  → </tspan><tspan x="853.5" fill="#599caa" xml:space="preserve">How linking works</tspan><tspan x="1087.5" fill="#0e2129" xml:space="preserve">│</tspan></text>
<text y="159.0"><tspan x="16.5" fill="#0e2129" xml:space="preserve">│</tspan><tspan x="25.5" fill="#edb54b" xml:space="preserve">▌ Welcome</tspan><tspan x="241.5" fill="#0e2129" xml:space="preserve">│</tspan><tspan x="250.5" fill="#33859d" xml:space="preserve">│</tspan><tspan x="259.5" fill="#245361" xml:space="preserve">  6 #</tspan><tspan x="304.5" fill="#edb54b" xml:space="preserve" font-weight="700"> Welcome</tspan><tspan x="799.5" fill="#33859d" xml:space="preserve">│</tspan><tspan x="808.5" fill="#0e2129" xml:space="preserve">│</tspan><tspan x="817.5" fill="#245361" xml:space="preserve">  → </tspan><tspan x="853.5" fill="#599caa" xml:space="preserve">Reading a note</tspan><tspan x="1087.5" fill="#0e2129" xml:space="preserve">│</tspan></text>
<text y="180.8"><tspan x="16.5" fill="#0e2129" xml:space="preserve">│</tspan><tspan x="241.5" fill="#0e2129" xml:space="preserve">│</tspan><tspan x="250.5" fill="#33859d" xml:space="preserve">│</tspan><tspan x="259.5" fill="#245361" xml:space="preserve">  7 </tspan><tspan x="799.5" fill="#33859d" xml:space="preserve">│</tspan><tspan x="808.5" fill="#0e2129" xml:space="preserve">│</tspan><tspan x="1087.5" fill="#0e2129" xml:space="preserve">│</tspan></text>
<text y="202.5"><tspan x="16.5" fill="#0e2129" xml:space="preserve">│</tspan><tspan x="241.5" fill="#0e2129" xml:space="preserve">│</tspan><tspan x="250.5" fill="#33859d" xml:space="preserve">│</tspan><tspan x="259.5" fill="#245361" xml:space="preserve">  8 </tspan><tspan x="295.5" fill="#98d1ce" xml:space="preserve">A vault is a folder of markdown files. trafford reads   </tspan><tspan x="799.5" fill="#33859d" xml:space="preserve">│</tspan><tspan x="808.5" fill="#0e2129" xml:space="preserve">│</tspan><tspan x="817.5" fill="#33859d" xml:space="preserve" font-weight="700">BACKLINKS · 3</tspan><tspan x="1087.5" fill="#0e2129" xml:space="preserve">│</tspan></text>
<text y="224.2"><tspan x="16.5" fill="#0e2129" xml:space="preserve">│</tspan><tspan x="241.5" fill="#0e2129" xml:space="preserve">│</tspan><tspan x="250.5" fill="#33859d" xml:space="preserve">│</tspan><tspan x="295.5" fill="#98d1ce" xml:space="preserve">it the way Obsidian                                     </tspan><tspan x="799.5" fill="#33859d" xml:space="preserve">│</tspan><tspan x="808.5" fill="#0e2129" xml:space="preserve">│</tspan><tspan x="817.5" fill="#245361" xml:space="preserve">  ← </tspan><tspan x="853.5" fill="#599caa" xml:space="preserve">How linking works</tspan><tspan x="1087.5" fill="#0e2129" xml:space="preserve">│</tspan></text>
<text y="246.0"><tspan x="16.5" fill="#0e2129" xml:space="preserve">│</tspan><tspan x="241.5" fill="#0e2129" xml:space="preserve">│</tspan><tspan x="250.5" fill="#33859d" xml:space="preserve">│</tspan><tspan x="259.5" fill="#245361" xml:space="preserve">  9 </tspan><tspan x="295.5" fill="#98d1ce" xml:space="preserve">does — </tspan><tspan x="358.5" fill="#26a98b" xml:space="preserve">`[[wikilinks]]`</tspan><tspan x="493.5" fill="#98d1ce" xml:space="preserve">, backlinks, tags — and edits it  </tspan><tspan x="799.5" fill="#33859d" xml:space="preserve">│</tspan><tspan x="808.5" fill="#0e2129" xml:space="preserve">│</tspan><tspan x="817.5" fill="#245361" xml:space="preserve">     | `[[Welcome]]` | the no…</tspan><tspan x="1087.5" fill="#0e2129" xml:space="preserve">│</tspan></text>
<text y="267.8"><tspan x="16.5" fill="#0e2129" xml:space="preserve">│</tspan><tspan x="241.5" fill="#0e2129" xml:space="preserve">│</tspan><tspan x="250.5" fill="#33859d" xml:space="preserve">│</tspan><tspan x="295.5" fill="#98d1ce" xml:space="preserve">the way vim does.                                       </tspan><tspan x="799.5" fill="#33859d" xml:space="preserve">│</tspan><tspan x="808.5" fill="#0e2129" xml:space="preserve">│</tspan><tspan x="817.5" fill="#245361" xml:space="preserve">  ← </tspan><tspan x="853.5" fill="#599caa" xml:space="preserve">How linking works</tspan><tspan x="1087.5" fill="#0e2129" xml:space="preserve">│</tspan></text>
<text y="289.5"><tspan x="16.5" fill="#0e2129" xml:space="preserve">│</tspan><tspan x="241.5" fill="#0e2129" xml:space="preserve">│</tspan><tspan x="250.5" fill="#33859d" xml:space="preserve">│</tspan><tspan x="259.5" fill="#245361" xml:space="preserve"> 10 </tspan><tspan x="799.5" fill="#33859d" xml:space="preserve">│</tspan><tspan x="808.5" fill="#0e2129" xml:space="preserve">│</tspan><tspan x="817.5" fill="#245361" xml:space="preserve">     | `[[Welcome#Tags]]` | W…</tspan><tspan x="1087.5" fill="#0e2129" xml:space="preserve">│</tspan></text>
<text y="311.2"><tspan x="16.5" fill="#0e2129" xml:space="preserve">│</tspan><tspan x="241.5" fill="#0e2129" xml:space="preserve">│</tspan><tspan x="250.5" fill="#33859d" xml:space="preserve">│</tspan><tspan x="259.5" fill="#245361" xml:space="preserve"> 11 </tspan><tspan x="295.5" fill="#98d1ce" xml:space="preserve">Start with </tspan><tspan x="394.5" fill="#599caa" xml:space="preserve" text-decoration="underline">[[How linking works]]</tspan><tspan x="583.5" fill="#98d1ce" xml:space="preserve">, then look at          </tspan><tspan x="799.5" fill="#33859d" xml:space="preserve">│</tspan><tspan x="808.5" fill="#0e2129" xml:space="preserve">│</tspan><tspan x="817.5" fill="#245361" xml:space="preserve">  ← </tspan><tspan x="853.5" fill="#599caa" xml:space="preserve">How linking works</tspan><tspan x="1087.5" fill="#0e2129" xml:space="preserve">│</tspan></text>
<text y="333.0"><tspan x="16.5" fill="#0e2129" xml:space="preserve">│</tspan><tspan x="241.5" fill="#0e2129" xml:space="preserve">│</tspan><tspan x="250.5" fill="#33859d" xml:space="preserve">│</tspan><tspan x="295.5" fill="#599caa" xml:space="preserve" text-decoration="underline">[[Reading a note]]</tspan><tspan x="457.5" fill="#98d1ce" xml:space="preserve">.                                     </tspan><tspan x="799.5" fill="#33859d" xml:space="preserve">│</tspan><tspan x="808.5" fill="#0e2129" xml:space="preserve">│</tspan><tspan x="817.5" fill="#245361" xml:space="preserve">     Back to [[Welcome]].</tspan><tspan x="1087.5" fill="#0e2129" xml:space="preserve">│</tspan></text>
<text y="354.8"><tspan x="16.5" fill="#0e2129" xml:space="preserve">│</tspan><tspan x="241.5" fill="#0e2129" xml:space="preserve">│</tspan><tspan x="250.5" fill="#33859d" xml:space="preserve">│</tspan><tspan x="259.5" fill="#245361" xml:space="preserve"> 12 </tspan><tspan x="799.5" fill="#33859d" xml:space="preserve">│</tspan><tspan x="808.5" fill="#0e2129" xml:space="preserve">│</tspan><tspan x="1087.5" fill="#0e2129" xml:space="preserve">│</tspan></text>
<text y="376.5"><tspan x="16.5" fill="#0e2129" xml:space="preserve">│</tspan><tspan x="241.5" fill="#0e2129" xml:space="preserve">│</tspan><tspan x="250.5" fill="#33859d" xml:space="preserve">│</tspan><tspan x="259.5" fill="#245361" xml:space="preserve"> 13 </tspan><tspan x="295.5" fill="#edb54b" xml:space="preserve">&gt;</tspan><tspan x="304.5" fill="#599caa" xml:space="preserve" font-style="italic"> [!tip] Everything here is clickable</tspan><tspan x="799.5" fill="#33859d" xml:space="preserve">│</tspan><tspan x="808.5" fill="#0e2129" xml:space="preserve">│</tspan><tspan x="817.5" fill="#33859d" xml:space="preserve" font-weight="700">UNWRITTEN · 1</tspan><tspan x="1087.5" fill="#0e2129" xml:space="preserve">│</tspan></text>
<text y="398.2"><tspan x="16.5" fill="#0e2129" xml:space="preserve">│</tspan><tspan x="241.5" fill="#0e2129" xml:space="preserve">│</tspan><tspan x="250.5" fill="#33859d" xml:space="preserve">│</tspan><tspan x="259.5" fill="#245361" xml:space="preserve"> 14 </tspan><tspan x="295.5" fill="#edb54b" xml:space="preserve">&gt;</tspan><tspan x="304.5" fill="#599caa" xml:space="preserve" font-style="italic"> Right-click any surface for what can be done to it.</tspan><tspan x="799.5" fill="#33859d" xml:space="preserve">│</tspan><tspan x="808.5" fill="#0e2129" xml:space="preserve">│</tspan><tspan x="817.5" fill="#245361" xml:space="preserve">  ○ </tspan><tspan x="853.5" fill="#c33027" xml:space="preserve">wikilinks</tspan><tspan x="1087.5" fill="#0e2129" xml:space="preserve">│</tspan></text>
<text y="420.0"><tspan x="16.5" fill="#0e2129" xml:space="preserve">│</tspan><tspan x="241.5" fill="#0e2129" xml:space="preserve">│</tspan><tspan x="250.5" fill="#33859d" xml:space="preserve">│</tspan><tspan x="259.5" fill="#245361" xml:space="preserve"> 15 </tspan><tspan x="799.5" fill="#33859d" xml:space="preserve">│</tspan><tspan x="808.5" fill="#0e2129" xml:space="preserve">│</tspan><tspan x="1087.5" fill="#0e2129" xml:space="preserve">│</tspan></text>
<text y="441.8"><tspan x="16.5" fill="#0e2129" xml:space="preserve">│</tspan><tspan x="241.5" fill="#0e2129" xml:space="preserve">│</tspan><tspan x="250.5" fill="#33859d" xml:space="preserve">│</tspan><tspan x="259.5" fill="#245361" xml:space="preserve"> 16 </tspan><tspan x="295.5" fill="#3fc2a0" xml:space="preserve">- [x] </tspan><tspan x="349.5" fill="#599caa" xml:space="preserve">install it</tspan><tspan x="799.5" fill="#33859d" xml:space="preserve">│</tspan><tspan x="808.5" fill="#0e2129" xml:space="preserve">│</tspan><tspan x="1087.5" fill="#0e2129" xml:space="preserve">│</tspan></text>
<text y="463.5"><tspan x="16.5" fill="#0e2129" xml:space="preserve">│</tspan><tspan x="241.5" fill="#0e2129" xml:space="preserve">│</tspan><tspan x="250.5" fill="#33859d" xml:space="preserve">│</tspan><tspan x="259.5" fill="#245361" xml:space="preserve"> 17 </tspan><tspan x="295.5" fill="#edb54b" xml:space="preserve">- [ ] </tspan><tspan x="349.5" fill="#98d1ce" xml:space="preserve">point it at a real vault                          </tspan><tspan x="799.5" fill="#33859d" xml:space="preserve">│</tspan><tspan x="808.5" fill="#0e2129" xml:space="preserve">│</tspan><tspan x="1087.5" fill="#0e2129" xml:space="preserve">│</tspan></text>
<text y="485.2"><tspan x="16.5" fill="#0e2129" xml:space="preserve">│</tspan><tspan x="241.5" fill="#0e2129" xml:space="preserve">│</tspan><tspan x="250.5" fill="#33859d" xml:space="preserve">│</tspan><tspan x="259.5" fill="#245361" xml:space="preserve"> 18 </tspan><tspan x="799.5" fill="#33859d" xml:space="preserve">│</tspan><tspan x="808.5" fill="#0e2129" xml:space="preserve">│</tspan><tspan x="1087.5" fill="#0e2129" xml:space="preserve">│</tspan></text>
<text y="507.0"><tspan x="16.5" fill="#0e2129" xml:space="preserve">╰────────────────────────╯</tspan><tspan x="250.5" fill="#33859d" xml:space="preserve">╰────────────────────────────────────────────────────────────╯</tspan><tspan x="808.5" fill="#0e2129" xml:space="preserve">╰──────────────────────────────╯</tspan></text>
<text y="528.8"><tspan x="16.5" fill="#0a0f14" xml:space="preserve" font-weight="700"> NORMAL </tspan><tspan x="106.5" fill="#245361" xml:space="preserve">tab or click for the file tree · ctrl-k commands · f1 keys</tspan><tspan x="952.5" fill="#599caa" xml:space="preserve">  76 words  1:1 </tspan></text>
</svg>
